<?xml version="1.0" standalone="no"?>
<!DOCTYPE svg PUBLIC "-//W3C//DTD SVG 20010904//EN"
 "http://www.w3.org/TR/2001/REC-SVG-20010904/DTD/svg10.dtd">
<svg version="1.0" xmlns="http://www.w3.org/2000/svg"
 width="500.000000pt" height="500.000000pt" viewBox="0 0 500.000000 500.000000"
 preserveAspectRatio="xMidYMid meet">
<metadata>
Created by potrace 1.14, written by Peter Selinger 2001-2017
</metadata>
<g transform="translate(0.000000,500.000000) scale(0.100000,-0.100000)"
fill="#000000" stroke="none">
<path d="M2330 4389 c-19 -4 -89 -18 -154 -29 -421 -74 -823 -309 -1104 -645
-293 -349 -442 -761 -442 -1217 0 -416 114 -777 352 -1113 72 -102 240 -280
343 -365 466 -381 1090 -520 1672 -371 674 173 1199 696 1374 1369 78 304 78
642 0 950 -91 353 -302 701 -571 939 -284 251 -607 404 -996 470 -110 18 -417
27 -474 12z"/>
</g>
</svg>
